<?xml version="1.0" encoding="utf-8"?>
<!DOCTYPE svg PUBLIC "-//W3C//DTD SVG 1.1//EN" "http://www.w3.org/Graphics/SVG/1.1/DTD/svg11.dtd">
<svg version="1.1" xmlns="http://www.w3.org/2000/svg" xmlns:xlink="http://www.w3.org/1999/xlink" x="0px" y="0px" width="16px"
	 height="16px" viewBox="0 0 25 25" enable-background="new 0 0 25 25" xml:space="preserve">
<g id="Amazon">
	<path fill-rule="evenodd" clip-rule="evenodd" d="M18.527,14.275c-0.142-0.202-0.293-0.397-0.437-0.599
		c-0.331-0.462-0.542-0.976-0.547-1.543c-0.016-1.585,0.003-3.17-0.011-4.756c-0.006-0.662-0.023-1.329-0.104-1.986
		c-0.141-1.135-0.737-1.998-1.724-2.579c-0.945-0.556-1.99-0.762-3.068-0.809c-0.452-0.019-0.909,0.028-1.362,0.069
		c-0.934,0.087-1.82,0.342-2.638,0.811c-0.469,0.27-0.883,0.609-1.228,1.027c-0.488,0.595-0.785,1.28-0.94,2.031
		C6.393,6.31,6.577,6.56,6.953,6.594c0.271,0.024,0.542,0.058,0.812,0.087C8.28,6.736,8.796,6.795,9.312,6.846
		c0.277,0.027,0.452-0.087,0.553-0.349C9.9,6.406,9.92,6.31,9.946,6.215c0.144-0.511,0.452-0.892,0.92-1.138
		c0.432-0.228,0.896-0.299,1.375-0.248c0.829,0.089,1.376,0.532,1.486,1.358c0.058,0.438,0.035,0.884,0.06,1.326
		c0.008,0.142-0.057,0.172-0.174,0.185c-0.874,0.1-1.75,0.19-2.622,0.31C10.12,8.126,9.27,8.338,8.481,8.745
		c-1.038,0.536-1.792,1.33-2.189,2.439c-0.298,0.83-0.333,1.682-0.211,2.554c0.213,1.52,1.194,2.663,2.662,3.05
		c0.761,0.2,1.532,0.184,2.307,0.09c0.814-0.099,1.553-0.383,2.202-0.878c0.372-0.284,0.717-0.601,1.088-0.913
		c0.012,0.016,0.035,0.04,0.052,0.067c0.353,0.553,0.761,1.056,1.261,1.484c0.32,0.274,0.6,0.288,0.92,0.014
		c0.613-0.527,1.217-1.067,1.847-1.575C18.747,14.813,18.7,14.519,18.527,14.275z M13.784,10.557c0.003,0.58,0.002,1.16-0.154,1.724
		c-0.193,0.697-0.533,1.305-1.162,1.698c-0.557,0.349-1.15,0.413-1.748,0.104c-0.333-0.172-0.553-0.458-0.665-0.811
		c-0.241-0.764-0.221-1.515,0.208-2.214c0.339-0.554,0.881-0.835,1.484-1.012c0.623-0.184,1.262-0.231,1.906-0.236
		c0.101-0.001,0.135,0.031,0.132,0.132C13.78,10.147,13.784,10.353,13.784,10.557z"/>
	<path fill-rule="evenodd" clip-rule="evenodd" fill="#F79722" d="M19.568,19.06c-0.052,0.012-0.103,0.03-0.153,0.053
		c-1.208,0.503-2.458,0.87-3.74,1.131c-1.052,0.213-2.116,0.335-3.185,0.373c-1.1,0.037-2.196-0.032-3.287-0.18
		c-1.158-0.157-2.294-0.41-3.406-0.761c-1.121-0.353-2.2-0.8-3.237-1.35c-0.182-0.099-0.361-0.205-0.545-0.299
		c-0.109-0.053-0.231-0.072-0.317,0.043c-0.088,0.12-0.01,0.213,0.072,0.297c0.006,0.005,0.014,0.011,0.021,0.018
		c0.557,0.426,1.092,0.889,1.673,1.275c1.399,0.939,2.931,1.595,4.568,1.998c1.195,0.293,2.408,0.428,3.814,0.454
		c0.283-0.021,0.74-0.049,1.197-0.089c1.167-0.097,2.303-0.347,3.415-0.712c0.918-0.3,1.799-0.687,2.627-1.188
		c0.262-0.159,0.513-0.334,0.761-0.515c0.131-0.095,0.167-0.264,0.106-0.385C19.892,19.103,19.72,19.028,19.568,19.06z"/>
	<path fill-rule="evenodd" clip-rule="evenodd" fill="#F79722" d="M22.273,17.134c-0.332-0.069-1.005-0.146-1.007-0.13
		c-0.439-0.02-0.872,0.033-1.283,0.173c-0.299,0.101-0.581,0.26-0.863,0.405c-0.081,0.041-0.161,0.138-0.096,0.229
		c0.036,0.052,0.145,0.074,0.221,0.071c0.182-0.007,0.363-0.047,0.545-0.056c0.441-0.019,0.884-0.057,1.323-0.027
		c0.463,0.028,0.626,0.135,0.526,0.633c-0.072,0.361-0.18,0.715-0.292,1.067c-0.083,0.268-0.203,0.523-0.296,0.787
		c-0.018,0.051-0.007,0.138,0.028,0.171c0.034,0.032,0.118,0.028,0.173,0.015c0.057-0.018,0.11-0.064,0.158-0.106
		c0.358-0.318,0.619-0.71,0.808-1.149c0.228-0.526,0.387-1.069,0.386-1.651C22.603,17.31,22.519,17.186,22.273,17.134z"/>
</g>
</svg>
